<svg width="22" height="22" viewBox="0 0 22 22" fill="none" xmlns="http://www.w3.org/2000/svg">
<path d="M9.79387 13.8843V18.7732H7.75684L10.9835 21.9998L14.2265 18.7732H12.1894V13.8843H9.79387Z" fill="white"/>
<path d="M12.1894 8.13183V3.24295H14.2265L10.9998 0L7.75684 3.24295H9.79387V8.13183H12.1894Z" fill="white"/>
<path d="M12.1895 13.8846L15.6443 17.3394L14.1939 18.7898H18.7731V14.2105L17.3228 15.6609L13.868 12.2061L12.1895 13.8846Z" fill="white"/>
<path d="M9.79366 8.13174L6.33885 4.67693L7.78921 3.22656H3.20996V7.80581L4.66033 6.35545L8.11514 9.81026L9.79366 8.13174Z" fill="white"/>
<path d="M13.8682 12.206H18.757V14.2431L22 11.0164L18.757 7.77344V9.81047H13.8682V12.206Z" fill="white"/>
<path d="M8.11554 9.81047H3.22666V7.77344L0 11.0001L3.22666 14.2431V12.206H8.11554V9.81047Z" fill="white"/>
<path d="M13.868 9.81026L17.3228 6.35545L18.7731 7.80581V3.22656H14.1939L15.6443 4.67693L12.1895 8.13174L13.868 9.81026Z" fill="white"/>
<path d="M8.11514 12.2061L4.66033 15.6609L3.20996 14.2105V18.7898H7.78921L6.33885 17.3394L9.79366 13.8846L8.11514 12.2061Z" fill="white"/>
</svg>
