<svg width="157" height="20" viewBox="0 0 157 20" fill="none" xmlns="http://www.w3.org/2000/svg">
<path d="M5.36271 3.99061V19.381H9.29703V3.99061H14.6597V0.5H0V3.99061H5.36271Z" fill="white"/>
<path d="M16.7228 0.5V19.381H20.6572V11.2363H27.8993V19.381H31.8336V0.5H27.8993V7.74565H20.6572V0.5H16.7228Z" fill="white"/>
<path d="M35.2971 0.5V19.381H48.8793V15.8904H39.2315V11.2627H47.902V8.03653H39.2315V3.99061H48.6788V0.5H35.2971Z" fill="white"/>
<path d="M58.5211 0.5V19.381H62.4554V13.2989L64.7108 10.8925L70.0985 19.381H75.0352L67.3671 7.9572L74.3586 0.5H69.447L62.4554 8.32742V0.5H58.5211Z" fill="white"/>
<path d="M76.606 0.5V19.381H80.2897V6.13257H80.3398L84.7252 19.381H87.7574L92.1428 6.00035H92.1929V19.381H95.8766V0.5H90.3385L86.3791 13.484H86.329L82.1441 0.5H76.606Z" fill="white"/>
<path d="M103.275 9.38518V3.72617H106.332C106.783 3.72617 107.218 3.76143 107.635 3.83194C108.053 3.90246 108.42 4.04349 108.738 4.25505C109.055 4.44897 109.306 4.73104 109.49 5.10125C109.69 5.47147 109.79 5.95627 109.79 6.55567C109.79 7.15507 109.69 7.63987 109.49 8.01009C109.306 8.38031 109.055 8.67119 108.738 8.88274C108.42 9.07666 108.053 9.20888 107.635 9.2794C107.218 9.34992 106.783 9.38518 106.332 9.38518H103.275ZM99.3405 0.5V19.381H103.275V12.6113H107.41C108.529 12.6113 109.481 12.4439 110.266 12.1089C111.052 11.7563 111.686 11.298 112.171 10.7338C112.672 10.1697 113.031 9.52621 113.248 8.80341C113.482 8.06298 113.599 7.31373 113.599 6.55567C113.599 5.77998 113.482 5.03074 113.248 4.30793C113.031 3.58513 112.672 2.94166 112.171 2.37752C111.686 1.81339 111.052 1.36384 110.266 1.02888C109.481 0.676294 108.529 0.5 107.41 0.5H99.3405Z" fill="white"/>
<path d="M116.055 0.5V19.381H119.739V6.74078H119.789L127.231 19.381H131.166V0.5H127.482V13.1667H127.432L119.964 0.5H116.055Z" fill="white"/>
<path d="M138.564 15.8904V3.99061H141.37C142.339 3.99061 143.149 4.14046 143.801 4.44015C144.469 4.72222 145.004 5.13651 145.405 5.68302C145.806 6.22953 146.09 6.89063 146.257 7.66632C146.441 8.42438 146.532 9.2794 146.532 10.2314C146.532 11.2715 146.407 12.153 146.157 12.8758C145.906 13.5986 145.572 14.1892 145.154 14.6475C144.736 15.0883 144.26 15.4056 143.726 15.5995C143.191 15.7934 142.64 15.8904 142.072 15.8904H138.564ZM134.629 0.5V19.381H142.347C143.717 19.381 144.904 19.143 145.906 18.667C146.925 18.1734 147.769 17.5035 148.437 16.6573C149.122 15.8111 149.631 14.8062 149.966 13.6427C150.3 12.4791 150.467 11.2098 150.467 9.83473C150.467 8.26572 150.258 6.89944 149.84 5.73591C149.439 4.57237 148.871 3.60276 148.136 2.82707C147.418 2.05138 146.557 1.46961 145.555 1.08177C144.569 0.693923 143.5 0.5 142.347 0.5H134.629Z" fill="white"/>
<path d="M153.828 16.4581V15.64H154.322C154.388 15.64 154.456 15.645 154.526 15.6549C154.601 15.6648 154.667 15.6846 154.724 15.7144C154.785 15.7392 154.834 15.7764 154.872 15.8259C154.909 15.8755 154.928 15.9425 154.928 16.0267C154.928 16.2152 154.874 16.3342 154.766 16.3837C154.658 16.4333 154.519 16.4581 154.35 16.4581H153.828ZM153.243 15.1566V18.2728H153.828V16.9415H154.195L154.914 18.2728H155.527L154.738 16.9118C154.846 16.9019 154.947 16.8796 155.041 16.8449C155.135 16.8102 155.217 16.7606 155.287 16.6961C155.358 16.6317 155.412 16.5498 155.449 16.4507C155.492 16.3466 155.513 16.2226 155.513 16.0788C155.513 15.7416 155.412 15.5037 155.21 15.3648C155.012 15.226 154.728 15.1566 154.357 15.1566H153.243ZM152.306 16.7184C152.306 16.4011 152.358 16.111 152.461 15.8483C152.564 15.5805 152.705 15.3499 152.884 15.1566C153.063 14.9632 153.272 14.812 153.511 14.7029C153.756 14.5938 154.016 14.5393 154.294 14.5393C154.566 14.5393 154.822 14.5938 155.062 14.7029C155.306 14.812 155.518 14.9632 155.696 15.1566C155.875 15.3499 156.016 15.5805 156.119 15.8483C156.227 16.111 156.281 16.4011 156.281 16.7184C156.281 17.0358 156.227 17.3283 156.119 17.596C156.016 17.8638 155.875 18.0968 155.696 18.2951C155.518 18.4885 155.306 18.6397 155.062 18.7488C154.822 18.8579 154.566 18.9124 154.294 18.9124C154.016 18.9124 153.756 18.8579 153.511 18.7488C153.272 18.6397 153.063 18.4885 152.884 18.2951C152.705 18.0968 152.564 17.8638 152.461 17.596C152.358 17.3283 152.306 17.0358 152.306 16.7184ZM151.587 16.7184C151.587 17.1448 151.66 17.5291 151.806 17.8712C151.956 18.2133 152.156 18.5059 152.405 18.7488C152.654 18.9918 152.94 19.1777 153.265 19.3066C153.593 19.4355 153.936 19.5 154.294 19.5C154.651 19.5 154.991 19.4355 155.316 19.3066C155.644 19.1777 155.933 18.9918 156.182 18.7488C156.431 18.5059 156.629 18.2133 156.774 17.8712C156.925 17.5291 157 17.1448 157 16.7184C157 16.297 156.925 15.9152 156.774 15.5731C156.629 15.231 156.431 14.9409 156.182 14.7029C155.933 14.4599 155.644 14.274 155.316 14.1451C154.991 14.0112 154.651 13.9443 154.294 13.9443C153.936 13.9443 153.593 14.0112 153.265 14.1451C152.94 14.274 152.654 14.4599 152.405 14.7029C152.156 14.9409 151.956 15.231 151.806 15.5731C151.66 15.9152 151.587 16.297 151.587 16.7184Z" fill="white"/>
</svg>
